<svg width="490" height="391" viewBox="0 0 490 391" fill="none" xmlns="http://www.w3.org/2000/svg">
<path d="M474.603 390.945H15.3974C11.3138 390.945 7.39736 389.323 4.50979 386.435C1.62222 383.548 0 379.631 0 375.548C166.462 356.202 329.795 356.202 490 375.548C490 379.631 488.378 383.548 485.49 386.435C482.603 389.323 478.686 390.945 474.603 390.945Z" fill="#2F2E41"/>
<path d="M490 376.453L0 375.548L56.7893 279.994L57.061 279.541V68.951C57.0608 66.3949 57.5641 63.8637 58.5422 61.5022C59.5203 59.1406 60.954 56.9948 62.7614 55.1874C64.5689 53.3799 66.7147 51.9462 69.0763 50.9681C71.4379 49.9901 73.969 49.4868 76.5251 49.487H410.758C413.314 49.4868 415.845 49.9901 418.207 50.9681C420.568 51.9462 422.714 53.3799 424.521 55.1874C426.329 56.9948 427.763 59.1406 428.741 61.5022C429.719 63.8637 430.222 66.3949 430.222 68.951V280.99L490 376.453Z" fill="#3F3D56"/>
<path d="M76.0813 63.0729C74.4004 63.0748 72.7889 63.7433 71.6003 64.9319C70.4117 66.1205 69.7431 67.732 69.7412 69.4129V261.426C69.7432 263.107 70.4118 264.719 71.6003 265.907C72.7889 267.096 74.4004 267.765 76.0813 267.767H413.919C415.6 267.765 417.211 267.096 418.4 265.907C419.588 264.719 420.257 263.107 420.259 261.426V69.4129C420.257 67.7321 419.588 66.1206 418.4 64.932C417.211 63.7434 415.6 63.0748 413.919 63.0729H76.0813Z" fill="white"/>
<path d="M77.4969 293.127C76.9775 293.128 76.4692 293.277 76.0318 293.557C75.5944 293.837 75.2462 294.237 75.0283 294.708L57.5297 332.749C57.3392 333.163 57.2559 333.618 57.2875 334.072C57.319 334.527 57.4644 334.966 57.7102 335.35C57.956 335.734 58.2943 336.05 58.6941 336.268C59.0939 336.487 59.5422 336.602 59.9979 336.602H427.983C428.446 336.602 428.902 336.483 429.306 336.258C429.711 336.032 430.051 335.707 430.294 335.313C430.538 334.919 430.677 334.469 430.697 334.006C430.718 333.544 430.62 333.083 430.413 332.669L411.393 294.629C411.168 294.176 410.822 293.796 410.392 293.531C409.963 293.265 409.468 293.125 408.963 293.127H77.4969Z" fill="#2F2E41"/>
<path d="M243.641 59.9028C245.892 59.9028 247.717 58.078 247.717 55.8271C247.717 53.5761 245.892 51.7513 243.641 51.7513C241.39 51.7513 239.566 53.5761 239.566 55.8271C239.566 58.078 241.39 59.9028 243.641 59.9028Z" fill="white"/>
<path d="M207.472 343.847C206.874 343.848 206.294 344.045 205.82 344.409C205.346 344.772 205.004 345.281 204.848 345.858L200.459 362.161C200.35 362.564 200.336 362.986 200.417 363.395C200.498 363.804 200.672 364.189 200.925 364.52C201.179 364.851 201.506 365.12 201.88 365.304C202.254 365.489 202.665 365.585 203.082 365.585H286.558C286.991 365.585 287.418 365.481 287.803 365.283C288.188 365.084 288.52 364.796 288.771 364.443C289.022 364.091 289.185 363.683 289.247 363.254C289.308 362.825 289.266 362.388 289.124 361.979L283.481 345.676C283.296 345.142 282.95 344.679 282.489 344.351C282.029 344.024 281.478 343.848 280.914 343.847H207.472Z" fill="#2F2E41"/>
<path d="M430.222 276.371V279.993H56.7892L57.0702 279.541V276.371H430.222Z" fill="#2F2E41"/>
<path d="M419.806 126.926C454.821 126.926 483.207 98.5409 483.207 63.5257C483.207 28.5105 454.821 0.125 419.806 0.125C384.791 0.125 356.405 28.5105 356.405 63.5257C356.405 98.5409 384.791 126.926 419.806 126.926Z" fill="#2161FB"/>
<path d="M446.072 91.1503H393.54C392.579 91.1494 391.658 90.7674 390.979 90.0882C390.3 89.4089 389.918 88.488 389.917 87.5274V55.8271C389.918 54.8665 390.3 53.9456 390.979 53.2664C391.658 52.5872 392.579 52.2052 393.54 52.2042H446.072C447.033 52.2052 447.954 52.5872 448.633 53.2664C449.312 53.9456 449.694 54.8665 449.695 55.8271V87.5274C449.694 88.488 449.312 89.4089 448.633 90.0882C447.954 90.7674 447.033 91.1494 446.072 91.1503ZM393.54 55.8271V87.5274H446.075L446.072 55.8271L393.54 55.8271Z" fill="white"/>
<path d="M436.109 55.8271H403.503V41.3355C403.503 30.8392 410.359 23.221 419.806 23.221C429.252 23.221 436.109 30.8392 436.109 41.3355L436.109 55.8271ZM407.126 52.2042H432.486V41.3355C432.486 32.8031 427.272 26.8439 419.806 26.8439C412.34 26.8439 407.126 32.8032 407.126 41.3355L407.126 52.2042Z" fill="white"/>
<path d="M419.806 74.3944C421.807 74.3944 423.429 72.7724 423.429 70.7715C423.429 68.7706 421.807 67.1486 419.806 67.1486C417.805 67.1486 416.183 68.7706 416.183 70.7715C416.183 72.7724 417.805 74.3944 419.806 74.3944Z" fill="white"/>
<path d="M375.546 202.637H114.453C113.172 202.636 111.943 202.126 111.036 201.22C110.13 200.313 109.62 199.084 109.618 197.802V133.037C109.62 131.755 110.13 130.526 111.036 129.62C111.943 128.713 113.172 128.203 114.453 128.202H375.546C376.828 128.203 378.057 128.713 378.964 129.62C379.87 130.526 380.38 131.755 380.381 133.037V197.802C380.38 199.084 379.87 200.313 378.964 201.22C378.057 202.126 376.828 202.636 375.546 202.637ZM114.453 130.136C113.684 130.137 112.947 130.443 112.403 130.986C111.859 131.53 111.553 132.268 111.552 133.037V197.802C111.553 198.572 111.859 199.309 112.403 199.853C112.947 200.397 113.684 200.703 114.453 200.703H375.546C376.315 200.703 377.053 200.397 377.597 199.853C378.141 199.309 378.447 198.572 378.447 197.802V133.037C378.447 132.268 378.141 131.53 377.597 130.986C377.053 130.443 376.315 130.137 375.546 130.136L114.453 130.136Z" fill="#E6E6E6"/>
<path d="M155.022 182.63C165.899 182.63 174.717 173.812 174.717 162.935C174.717 152.057 165.899 143.239 155.022 143.239C144.145 143.239 135.327 152.057 135.327 162.935C135.327 173.812 144.145 182.63 155.022 182.63Z" fill="#E6E6E6"/>
<path d="M200.509 149.804C200.078 149.804 199.65 149.888 199.251 150.053C198.853 150.217 198.49 150.459 198.185 150.764C197.879 151.069 197.637 151.431 197.472 151.83C197.307 152.228 197.221 152.655 197.221 153.087C197.221 153.518 197.307 153.946 197.472 154.344C197.637 154.743 197.879 155.105 198.185 155.41C198.49 155.715 198.853 155.956 199.251 156.121C199.65 156.286 200.078 156.37 200.509 156.37H355.259C356.129 156.37 356.964 156.024 357.58 155.408C358.195 154.792 358.541 153.958 358.541 153.087C358.541 152.216 358.195 151.381 357.58 150.766C356.964 150.15 356.129 149.804 355.259 149.804H200.509Z" fill="#E6E6E6"/>
<path d="M200.509 169.5C199.639 169.5 198.804 169.845 198.188 170.461C197.572 171.077 197.227 171.912 197.227 172.782C197.227 173.653 197.572 174.488 198.188 175.103C198.804 175.719 199.639 176.065 200.509 176.065H267.098C267.969 176.065 268.804 175.719 269.419 175.103C270.035 174.488 270.381 173.653 270.381 172.782C270.381 171.912 270.035 171.077 269.419 170.461C268.804 169.845 267.969 169.5 267.098 169.5H200.509Z" fill="#E6E6E6"/>
</svg>
